<?xml version="1.0" encoding="UTF-8"?>
<svg width="367px" height="112px" viewBox="0 0 367 112" version="1.1" xmlns="http://www.w3.org/2000/svg" xmlns:xlink="http://www.w3.org/1999/xlink">
    <!-- Generator: Sketch 51.2 (57519) - http://www.bohemiancoding.com/sketch -->
    <title>Artboard</title>
    <desc>Created with Sketch.</desc>
    <defs></defs>
    <g id="Artboard" stroke="none" stroke-width="1" fill="none" fill-rule="evenodd">
        <text id="Development" font-family="HiraginoSans-W1, Hiragino Sans" font-size="43" font-weight="300" line-spacing="40" letter-spacing="-1.10000002" fill="#000000">
            <tspan x="85" y="90.765">D</tspan>
            <tspan x="114.38" y="87" font-size="46">evelopmen</tspan>
            <tspan x="340.092" y="87" font-size="46">t</tspan>
        </text>
        <path d="M82,56.7615291 L82,77.2356823 C82,78.8925366 80.6568542,80.2356823 79,80.2356823 L61.5861692,80.2356823 C59.9293149,80.2356823 58.5861692,81.5788281 58.5861692,83.2356823 L58.5861692,100 C58.5861692,101.656854 57.2430234,103 55.5861692,103 L14,103 C12.3431458,103 11,101.656854 11,100 L11,83.1890164 C11,81.5504991 12.3146552,80.2150709 13.9529711,80.189385 L30.6846758,79.9270618 C32.3229917,79.901376 33.6376469,78.5659477 33.6376469,76.9274305 L33.6376469,59.7615291 C33.6376469,58.1046748 34.9807927,56.7615291 36.6376469,56.7615291 L54.6653413,56.7615291 C56.3221956,56.7615291 57.6653413,55.4183833 57.6653413,53.7615291 L57.6653413,35.1407173 C57.6653413,33.4838631 59.0084871,32.1407173 60.6653413,32.1407173 L78.1181473,32.1407173 C79.7750016,32.1407173 81.1181473,30.7975716 81.1181473,29.1407173 L81.1181473,10 C81.1181473,8.34314575 79.7750016,7 78.1181473,7 L36.6376469,7 C34.9807927,7 33.6376469,8.34314575 33.6376469,10 L33.6376469,29.1407173 C33.6376469,30.7975716 32.2945012,32.1407173 30.6376469,32.1407173 L14,32.1407173 C12.3431458,32.1407173 11,33.4838631 11,35.1407173 L11,50.0328331" id="Path-3" stroke="#D30000" stroke-width="3" fill-rule="nonzero"></path>
    </g>
</svg>